<?xml version="1.0" encoding="UTF-8"?>
<svg version="1.1" xmlns="http://www.w3.org/2000/svg" width="100" height="61">
<path d="M0 0 C2.3125 -0.328125 2.3125 -0.328125 5 -0.25 C6.3303125 -0.22679687 6.3303125 -0.22679687 7.6875 -0.203125 C10 0 10 0 12 1 C12 1.66 12 2.32 12 3 C12.58136719 3.08507812 13.16273437 3.17015625 13.76171875 3.2578125 C20.1128019 5.3637563 24.33754687 13.38200647 27.625 18.8125 C30.35342603 23.21995743 32.21767245 25.9077317 37 28 C41.5849842 28.48262992 44.85747753 28.00849574 49 26 C49 25.34 49 24.68 49 24 C49.66 24 50.32 24 51 24 C51.25652344 23.28199219 51.51304688 22.56398438 51.77734375 21.82421875 C53.07420222 18.82859999 54.64946373 16.45241018 56.5625 13.8125 C58.97200639 10.52121677 58.97200639 10.52121677 61 7 C61.66 7 62.32 7 63 7 C63 6.34 63 5.68 63 5 C67.15131617 0.86122557 71.68869975 -0.40908262 77.4375 -0.625 C83.75323593 -0.30484749 88.28164108 0.66647177 93 5 C97.9569869 10.75377665 102.22831083 16.91535526 105 24 C106.9001177 25.24174796 106.9001177 25.24174796 109 26 C109.99 26.66 110.98 27.32 112 28 C117.78316265 28.65469766 120.45788836 27.51704364 125 24 C127.1137873 21.31959941 127.1137873 21.31959941 128.875 18.3125 C139.18976447 2.21044402 139.18976447 2.21044402 147 0 C153.88789029 -0.6085332 160.14291698 -1.0162855 166 3 C166 3.66 166 4.32 166 5 C166.66 5 167.32 5 168 5 C168 5.66 168 6.32 168 7 C168.66 7 169.32 7 170 7 C171.2890625 8.42578125 171.2890625 8.42578125 172.625 10.3125 C173.07101563 10.92738281 173.51703125 11.54226562 173.9765625 12.17578125 C175 14 175 14 175 17 C175.66 17 176.32 17 177 17 C180 21.38461538 180 21.38461538 180 24 C180.66 24 181.32 24 182 24 C182 24.66 182 25.32 182 26 C182.66 26 183.32 26 184 26 C184 26.66 184 27.32 184 28 C185.56160485 28.08187055 187.12448483 28.13958275 188.6875 28.1875 C189.99267578 28.23970703 189.99267578 28.23970703 191.32421875 28.29296875 C195.86454863 27.79585234 198.25644147 25.87753304 201.16796875 22.44140625 C202.16763672 21.01634766 202.16763672 21.01634766 203.1875 19.5625 C203.86167969 18.61503906 204.53585938 17.66757812 205.23046875 16.69140625 C206.67260586 14.49795709 207.90348504 12.37859399 209 10 C209.66 10 210.32 10 211 10 C211.3403125 9.13375 211.3403125 9.13375 211.6875 8.25 C214.02268061 4.24683323 217.7705661 1.74985381 222 0 C229.00880844 -1.07316444 234.70495592 -0.81827915 240.6875 3.1875 C244.14512165 5.78496045 245.66951947 7.88049078 247 12 C247.66 12 248.32 12 249 12 C249.515625 12.99 250.03125 13.98 250.5625 15 C253.26821003 19.75196386 257.0124966 25.5062483 262 28 C266.04233627 28.55756362 268.56542871 28.83968485 272.12890625 26.75390625 C276.52517663 23.14179036 279.10475828 19.36850561 281.66015625 14.34375 C285.11098935 8.30730725 290.18982168 2.0430535 297 0 C300.35089976 -0.2119545 303.64852513 -0.17883364 307 0 C307.33 2.31 307.66 4.62 308 7 C307.14728516 7.22042969 307.14728516 7.22042969 306.27734375 7.4453125 C295.603074 10.54601857 291.26270562 16.53364716 286 26 C285.34 26.99 284.68 27.98 284 29 C283.34 29 282.68 29 282 29 C281.731875 29.639375 281.46375 30.27875 281.1875 30.9375 C280 33 280 33 277 34 C277 34.66 277 35.32 277 36 C270.73912502 38.84481363 264.12660824 39.21219117 257.5 37.265625 C250.67259215 33.99415874 247.00655949 28.21108195 243 22 C239.62489003 16.78491072 236.23839257 12.49226171 231 9 C226.09426713 9.092561 223.05627755 10.1133124 219.41796875 13.46875 C216.18324488 16.96189534 213.51096148 20.46711556 212 25 C211.34 25 210.68 25 210 25 C209.814375 25.70125 209.62875 26.4025 209.4375 27.125 C207.10066109 31.79867781 203.28946623 34.90001215 198.6015625 37.15234375 C192.89280547 39.01240422 186.38433695 38.95944552 180.8125 36.625 C175.65131614 33.63805719 172.39240171 28.78147155 169 24 C168.09121094 22.72189453 168.09121094 22.72189453 167.1640625 21.41796875 C163 15.36737089 163 15.36737089 163 13 C162.4225 12.71125 161.845 12.4225 161.25 12.125 C159 11 159 11 157.125 9.8125 C154.13949644 8.67098393 152.07565273 9.29516292 149 10 C147.88625 10.1546875 147.88625 10.1546875 146.75 10.3125 C144.29451963 11.277153 144.11950418 12.64904122 143 15 C130.39736268 35.62979485 130.39736268 35.62979485 121 38 C113.85545369 38.98329041 107.9561285 38.20019439 102 34 C100.28125 32.48828125 100.28125 32.48828125 99 31 C99 30.34 99 29.68 99 29 C98.34 29 97.68 29 97 29 C93 22.25 93 22.25 93 20 C92.34 20 91.68 20 91 20 C88.82796 17.03812728 87.16438003 14.49314009 86 11 C82.29314649 8.9877081 79.17248161 8.6522932 75 9 C72.21433941 9.91257306 72.21433941 9.91257306 70 11 C70 11.66 70 12.32 70 13 C69.34 13 68.68 13 68 13 C67.62875 14.06347656 67.62875 14.06347656 67.25 15.1484375 C65.84929273 18.34380095 64.09045554 20.83516412 62 23.625 C59.93950544 26.39000188 57.91310101 29.13034848 56 32 C55.34 32 54.68 32 54 32 C54 32.66 54 33.32 54 34 C47.59662528 37.86618851 42.46582007 39.05720372 35 38 C27.10997184 35.70496599 23.10828769 30.05453572 18.6171875 23.57421875 C18.18647949 22.95724121 17.75577148 22.34026367 17.31201172 21.70458984 C16.45555914 20.46947494 15.6102433 19.22654136 14.77783203 17.97509766 C11.32678477 12.95451021 7.64954845 9.79986368 1.6875 8 C-1 7 -1 7 -2 5.0625 C-2 3 -2 3 0 0 Z " fill="currentColor" transform="translate(23,11)"/>
</svg>
